<mxfile host="app.diagrams.net" modified="2023-10-21T12:21:11.349Z" agent="Mozilla/5.0 (X11; Linux x86_64) AppleWebKit/537.36 (KHTML, like Gecko) Chrome/118.0.0.0 Safari/537.36" version="22.0.6" etag="0OsdVwAVuAm-puGHUhxr" type="github">
  <diagram name="PÃ¡gina-1" id="l0uhu5gbcfwIphdw0F29">
    <mxGraphModel>
      <root>
        <mxCell id="0" />
        <mxCell id="1" parent="0" />
      </root>
    </mxGraphModel>
  </diagram>
</mxfile>
